<?xml version="1.0" encoding="UTF-8"?>
<svg id="Camada_1" data-name="Camada 1" xmlns="http://www.w3.org/2000/svg" viewBox="0 0 295.66 113.36">
  <defs>
    <style>
      .cls-1 {
        fill: #373332;
      }

      .cls-2 {
        fill: #f6a306;
      }

      .cls-3 {
        fill: #20aec2;
      }

      .cls-4 {
        fill: #e21a49;
      }
    </style>
  </defs>
  <path class="cls-4" d="M67.71,66.11l-24.87,14.36v-28.82c0-.39-.05-.78-.12-1.15-.02-.09-.03-.18-.05-.27-.08-.37-.19-.73-.34-1.08-.02-.04-.04-.07-.05-.11-.14-.32-.31-.62-.5-.9-.05-.07-.09-.15-.15-.22-.22-.3-.45-.59-.72-.85-.01-.01-.02-.03-.04-.04l27.27-16.43c.13.09.26.19.38.29.13.11.25.22.37.34.18.19.33.41.48.62.09.13.18.25.26.39.14.25.24.52.33.79.04.13.11.25.14.38.11.41.17.83.17,1.26v27.04c0,1.81-.97,3.5-2.54,4.4Z"/>
  <path class="cls-3" d="M15.48,31.36c0-.47.23-.87.63-1.11l23.1-13.5c.78-.45,1.66-.68,2.54-.68s1.76.23,2.54.68l22,12.7-27.15,16.36-23.03-13.35c-.41-.23-.64-.64-.64-1.11Z"/>
  <path class="cls-2" d="M40.91,96.01c0,.66-.45.99-.64,1.1-.4.23-.87.23-1.27,0l-21.76-12.53c-1.09-.63-1.76-1.8-1.76-3.05v-28.06c0-.46.24-.87.64-1.1.12-.07.35-.18.64-.18.19,0,.41.05.63.18l21.76,12.59c1.08.63,1.76,1.79,1.76,3.05v28Z"/>
  <g>
    <path class="cls-1" d="M91,85.12h3.21c.07,1.52.88,2.76,3.25,2.76,2.01,0,2.8-.68,2.8-1.85,0-2.85-8.95-.86-8.95-6.12,0-2.3,1.54-4.25,5.9-4.25s5.97,2.22,6.01,5.11h-3.19c-.18-1.47-.68-2.44-2.94-2.44-2.1,0-2.6.77-2.6,1.49,0,2.92,8.9.63,8.9,6.12,0,2.12-1.36,4.54-5.85,4.54-4.75,0-6.53-1.97-6.55-5.36Z"/>
    <path class="cls-1" d="M105.32,75.27c0-1.29.84-1.6,1.99-1.6s1.94.32,1.94,1.6-.79,1.58-1.94,1.58-1.99-.32-1.99-1.58ZM105.75,78.73h3.12v11.57h-3.12v-11.57Z"/>
    <path class="cls-1" d="M110.57,86.23h3.05c0,1.2.93,1.85,2.58,1.85,1.42,0,2.22-.5,2.22-1.18,0-2.12-7.59-.61-7.59-4.7,0-2.42,1.83-3.66,5.15-3.66s5.15,1.4,5.15,4.09h-2.89c-.14-1.24-.7-1.74-2.35-1.74-1.56,0-2.03.56-2.03,1.15,0,2.03,7.61.34,7.61,4.72,0,2.21-2.08,3.71-5.2,3.71-3.8,0-5.7-1.4-5.7-4.25Z"/>
    <path class="cls-1" d="M124.2,86.45v-5.2h-1.69v-1.54l1.69-.95v-2.94h3.07v2.89h2.98v2.53h-2.89v5.18c0,1.29.72,1.6,2.89,1.45v2.53c-4.11.34-6.05-.39-6.05-3.95Z"/>
    <path class="cls-1" d="M131.06,84.51c0-2.89,1.04-5.97,5.72-5.97,4.41,0,5.63,3.52,5.29,7.19h-7.84c.16,1.65,1.13,2.35,2.49,2.35s1.87-.61,2.1-1.29h3.28c-.2,1.94-1.54,3.68-5.27,3.68-4.75,0-5.76-2.98-5.76-5.97ZM138.85,83.36c0-1.29-.68-2.39-2.33-2.39-1.56,0-2.24,1.06-2.31,2.39h4.63Z"/>
    <path class="cls-1" d="M144.02,78.73h1.33l.7,1.9c.47-.95,1.58-2.08,3.77-2.08,1.54,0,2.6.59,3.21,1.72.39-.7,1.31-1.72,3.44-1.72,3.16,0,3.84,2.28,3.84,4.86v6.89h-3.14v-7.1c0-1.11-.25-2.03-1.69-2.03s-1.74.9-1.74,2.03v7.1h-3.14v-7.1c0-1.11-.25-2.03-1.69-2.03s-1.79.95-1.79,2.08v7.05h-3.1v-11.57Z"/>
    <path class="cls-1" d="M161.93,86.86c0-2.19,1.45-3.14,4.84-3.43l3.07-.27c-.02-1.29-.61-2.22-2.33-2.22s-2.12.75-2.12,1.88l-3.07.02c0-2.37.97-4.29,5.13-4.29,4.81,0,5.49,2.12,5.49,5.2v6.55h-1.31l-.7-1.85c-.68,1.06-2.03,2.03-4.38,2.03-2.58,0-4.61-1.13-4.61-3.62ZM169.84,85.23l-2.6.29c-1.6.16-2.08.56-2.08,1.18,0,.79.61,1.36,2.12,1.36,1.92,0,2.53-1.31,2.55-2.82Z"/>
    <path class="cls-1" d="M179.73,84.51c0-3.07,1.24-5.97,4.9-5.97,1.97,0,2.98.75,3.46,1.45v-5.67h3.1v15.98h-1.31l-.7-1.85c-.74,1.15-1.9,2.03-4.47,2.03-3.64,0-4.97-2.92-4.97-5.97ZM188.15,84.51c0-1.92-.34-3.34-2.55-3.34s-2.71,1.36-2.71,3.34.56,3.39,2.69,3.39,2.58-1.36,2.58-3.39Z"/>
    <path class="cls-1" d="M193.09,84.51c0-2.89,1.04-5.97,5.72-5.97,4.41,0,5.63,3.52,5.29,7.19h-7.84c.16,1.65,1.13,2.35,2.49,2.35s1.87-.61,2.1-1.29h3.28c-.2,1.94-1.54,3.68-5.27,3.68-4.75,0-5.76-2.98-5.76-5.97ZM200.89,83.36c0-1.29-.68-2.39-2.33-2.39-1.56,0-2.24,1.06-2.31,2.39h4.63Z"/>
    <path class="cls-1" d="M211.46,75.83h10.24v2.67h-7.05v3.12h6.35v2.6h-6.35v3.41h7.05v2.67h-10.24v-14.46Z"/>
    <path class="cls-1" d="M223.89,78.73h1.29l.72,1.81c.79-1.2,1.83-1.99,4.36-1.99,3.66,0,4.45,2.22,4.45,5.45v6.31h-3.1v-6.55c0-1.65-.34-2.6-2.26-2.6s-2.37.99-2.37,2.67v6.48h-3.1v-11.57Z"/>
    <path class="cls-1" d="M236.31,86.23h3.05c0,1.2.93,1.85,2.58,1.85,1.42,0,2.22-.5,2.22-1.18,0-2.12-7.59-.61-7.59-4.7,0-2.42,1.83-3.66,5.15-3.66s5.15,1.4,5.15,4.09h-2.89c-.14-1.24-.7-1.74-2.35-1.74-1.56,0-2.03.56-2.03,1.15,0,2.03,7.61.34,7.61,4.72,0,2.21-2.08,3.71-5.2,3.71-3.8,0-5.7-1.4-5.7-4.25Z"/>
    <path class="cls-1" d="M248.54,75.27c0-1.29.84-1.6,1.99-1.6s1.94.32,1.94,1.6-.79,1.58-1.94,1.58-1.99-.32-1.99-1.58ZM248.97,78.73h3.12v11.57h-3.12v-11.57Z"/>
    <path class="cls-1" d="M254.42,78.73h1.29l.72,1.81c.79-1.2,1.83-1.99,4.36-1.99,3.66,0,4.45,2.22,4.45,5.45v6.31h-3.1v-6.55c0-1.65-.34-2.6-2.26-2.6s-2.37.99-2.37,2.67v6.48h-3.1v-11.57Z"/>
    <path class="cls-1" d="M266.88,84.49c0-3.05,1.27-5.94,5.76-5.94s5.76,2.89,5.76,5.94-1.31,5.99-5.81,5.99-5.72-2.92-5.72-5.99ZM275.36,84.49c0-1.83-.54-3.32-2.71-3.32s-2.71,1.42-2.71,3.32.59,3.35,2.67,3.35,2.76-1.4,2.76-3.35Z"/>
  </g>
  <g>
    <path class="cls-1" d="M139.73,39.81l-.04-.02c-4.58-2.65-10.28-2.65-14.87,0h-.03c-3,1.75-4.86,4.97-4.86,8.44v6.43c0,3.46,1.86,6.69,4.85,8.42l.05.03c2.29,1.32,4.86,1.98,7.43,1.98s5.14-.66,7.43-1.98l.04-.02c3-1.73,4.86-4.96,4.86-8.42v-6.43c0-3.46-1.86-6.69-4.86-8.42ZM138.5,54.66c0,1.29-.7,2.5-1.82,3.15l-.04.02c-2.7,1.56-6.06,1.56-8.76,0l-.05-.03c-1.12-.65-1.82-1.85-1.82-3.15v-6.43c0-1.29.7-2.5,1.83-3.15l.03-.02c1.35-.78,2.87-1.17,4.38-1.17s3.03.39,4.39,1.17l.04.02c1.12.65,1.82,1.85,1.82,3.15v6.43Z"/>
    <path class="cls-1" d="M194.33,39.81l-.05-.03c-4.58-2.65-10.28-2.65-14.87,0h-.03c-3,1.75-4.86,4.97-4.86,8.44v6.43c0,3.46,1.86,6.69,4.85,8.42l.05.03c2.29,1.32,4.86,1.98,7.43,1.98s5.15-.66,7.44-1.99l.03-.02c2.06-1.19,3.61-3.08,4.36-5.34l-5.78-1.93c-.28.84-.86,1.55-1.64,2h-.03c-2.7,1.58-6.06,1.58-8.76.02l-.05-.03c-1.12-.65-1.82-1.85-1.82-3.15v-.51h18.57v-5.93c0-3.46-1.86-6.69-4.85-8.42ZM180.62,48.06c.06-1.23.74-2.36,1.82-2.99l.03-.02c2.7-1.56,6.06-1.56,8.76,0l.05.03c1.07.62,1.76,1.75,1.81,2.98h-12.47Z"/>
    <path class="cls-1" d="M275.32,39.81l-.04-.02c-4.58-2.65-10.28-2.65-14.86,0l-.04.02c-3,1.73-4.86,4.96-4.86,8.42v6.43c0,3.46,1.86,6.69,4.86,8.42l.04.02c2.29,1.32,4.86,1.98,7.43,1.98s5.14-.66,7.43-1.98l.04-.02c3-1.73,4.86-4.96,4.86-8.42v-6.43c0-3.46-1.86-6.69-4.86-8.42ZM274.09,54.66c0,1.29-.7,2.5-1.82,3.15l-.04.02c-2.7,1.56-6.06,1.56-8.77,0l-.04-.02c-1.12-.65-1.82-1.85-1.82-3.15v-6.43c0-1.29.7-2.5,1.82-3.15l.04-.02c1.35-.78,2.87-1.17,4.38-1.17s3.03.39,4.39,1.17l.04.02c1.12.65,1.82,1.85,1.82,3.15v6.43Z"/>
    <path class="cls-1" d="M111.07,28.38l-.42-.24c-4.78-2.76-10.72-2.76-15.5,0l-.42.24c-3.2,1.85-5.18,5.28-5.18,8.97v27.16h6.09v-10.45c2.27,1.2,4.76,1.83,7.26,1.83,2.68,0,5.36-.69,7.75-2.07l.42-.24c3.2-1.85,5.18-5.28,5.18-8.97v-7.25c0-3.69-1.99-7.13-5.18-8.97ZM110.15,44.6c0,1.52-.82,2.94-2.13,3.7l-.42.24c-2.9,1.67-6.51,1.68-9.41,0l-.42-.24c-1.32-.76-2.14-2.18-2.14-3.7v-7.25c0-1.52.82-2.94,2.14-3.7l.42-.24c1.45-.84,3.08-1.26,4.7-1.26s3.25.42,4.7,1.26l.42.24c1.32.76,2.14,2.18,2.14,3.7v7.25Z"/>
    <path class="cls-1" d="M240.1,38.26c-3.8,2.2-6.17,6.29-6.17,10.68v15.45h6.09v-15.45c0-2.22,1.2-4.29,3.12-5.4,1.92-1.11,4.31-1.11,6.24,0l1.74,1.01,3.05-5.28-1.74-1.01c-3.8-2.2-8.53-2.2-12.33,0Z"/>
    <path class="cls-1" d="M155.8,57.23v-31.47h-6.09v31.47c0,4.03,3.28,7.32,7.32,7.32h1.6v-6.09h-1.6c-.67,0-1.22-.55-1.22-1.22Z"/>
    <rect class="cls-1" x="163.67" y="37.08" width="6.09" height="27.63"/>
    <path class="cls-1" d="M222.51,39.2c-4.35-2.01-9.47-1.83-13.68.59h-.03c-3,1.75-4.86,4.97-4.86,8.44v6.43c0,3.46,1.86,6.69,4.85,8.42l.05.03c2.29,1.32,4.86,1.98,7.43,1.98s5.15-.66,7.44-1.99l.03-.02c3-1.73,4.86-4.96,4.86-8.42v-6.43c0-.24-.03-.48-.05-.71h.05v-21.55h-6.09v13.23ZM222.51,54.66c0,1.29-.7,2.5-1.83,3.15h-.03c-2.7,1.58-6.06,1.58-8.76.02l-.05-.03c-1.12-.65-1.82-1.85-1.82-3.15v-6.43c0-1.29.7-2.5,1.83-3.15l.03-.02c1.35-.78,2.87-1.17,4.39-1.17s3.03.39,4.37,1.17l.05.03c1.12.65,1.82,1.85,1.82,3.15v6.43Z"/>
    <path class="cls-1" d="M166.85,25.76c-1.11,0-2.14.59-2.69,1.55-.56.96-.56,2.15,0,3.11.56.96,1.58,1.55,2.69,1.55s2.14-.59,2.69-1.55c.56-.96.56-2.15,0-3.11-.56-.96-1.58-1.55-2.69-1.55Z"/>
  </g>
</svg>